<svg version="1.1" id="Layer_1" xmlns="http://www.w3.org/2000/svg" xmlns:xlink="http://www.w3.org/1999/xlink" x="0px" y="0px"
	 width="100%" viewBox="0 0 247 243" enable-background="new 0 0 247 243" xml:space="preserve">
<path fill="#EC5D29" opacity="1.000000" stroke="none" 
	d="
M33.000000,1.000000 
	C33.750000,1.000000 34.500000,1.000000 35.888191,1.331770 
	C39.000462,1.779524 41.474571,1.997075 43.948627,1.996517 
	C94.984688,1.985018 146.020737,1.948696 197.449142,1.938519 
	C203.251648,4.173638 208.655151,6.404018 214.076797,8.589397 
	C215.369507,9.110462 216.722794,9.481206 218.024109,9.960182 
	C218.000000,9.999275 218.048813,9.922791 217.839523,10.319710 
	C218.113113,10.796227 218.595978,10.875827 219.041580,10.976372 
	C219.004303,10.997317 219.060745,10.933093 218.778473,11.274096 
	C219.354996,12.059396 220.213791,12.503695 221.039215,12.969864 
	C221.005844,12.991734 221.039459,12.919367 220.871887,13.316414 
	C221.162399,13.793919 221.620499,13.874374 222.043396,13.973322 
	C222.008194,13.991812 222.045425,13.921545 221.846985,14.319784 
	C222.125153,14.796703 222.601761,14.875384 223.039185,14.976784 
	C223.000000,14.999504 223.078461,14.952518 222.719360,15.189495 
	C222.921707,16.302294 223.483154,17.178116 224.326508,18.151772 
	C224.722549,18.822750 224.836685,19.395897 225.036209,20.316357 
	C225.658524,22.147919 226.195450,23.632166 226.816162,25.419918 
	C227.246368,26.485552 227.592789,27.247679 227.899857,28.383488 
	C227.934845,29.502764 228.009201,30.248358 228.068298,31.330254 
	C228.644516,32.816200 229.235977,33.965843 229.893463,35.571373 
	C229.908646,41.323658 229.857788,46.620056 229.476440,52.194435 
	C229.145706,65.651024 229.145447,78.829643 229.069458,92.471008 
	C228.977432,122.525101 229.005203,152.116592 228.902863,181.707642 
	C228.885132,186.831421 228.316513,191.953262 227.809448,197.360275 
	C225.464615,206.132797 219.774765,212.256622 213.707214,218.527298 
	C208.464920,222.002563 203.288040,224.946976 196.555267,224.948853 
	C156.404449,224.922058 116.723671,224.917282 76.716949,224.756439 
	C74.245720,224.704514 72.100449,224.808640 69.561249,224.863205 
	C68.113838,224.879700 67.060341,224.945755 65.545792,224.916855 
	C54.557247,224.851669 44.029751,224.881439 33.510712,224.924744 
	C33.519169,224.938293 33.537739,224.964294 33.438755,224.641144 
	C32.517509,224.161804 31.695248,224.005615 30.588493,223.664032 
	C29.864159,223.388458 29.424314,223.298264 28.669872,223.033234 
	C26.574297,222.213028 24.793324,221.567657 22.897152,220.820953 
	C22.781954,220.719604 22.475204,220.711563 22.285200,220.431519 
	C21.065741,219.792053 20.036285,219.432632 19.001537,219.032166 
	C18.996244,218.991119 18.913979,219.000229 18.828499,218.806091 
	C18.540104,218.383957 18.286194,218.277634 17.638094,218.026245 
	C16.844875,217.863708 16.394852,217.967926 15.971883,218.036163 
	C15.998938,218.000198 15.953990,218.078033 16.152006,217.692581 
	C15.872982,217.217331 15.395941,217.127533 14.954624,217.022568 
	C14.990350,217.007416 14.952084,217.074951 15.173407,216.694702 
	C14.575799,215.898499 13.756867,215.482544 12.965824,215.035080 
	C12.993711,215.003586 12.925998,215.053757 13.248681,214.797012 
	C6.564501,205.564819 2.369159,195.604111 2.939604,183.534546 
	C3.000521,132.998672 2.990057,82.926544 2.980209,32.450600 
	C3.731942,29.092716 4.483060,26.138657 5.557053,23.081451 
	C11.880180,12.561454 20.165157,5.027248 32.129940,2.091867 
	C32.487717,2.004092 32.712963,1.376114 33.000000,1.000000 
M194.996506,104.001236 
	C194.996506,104.001236 194.972839,103.947037 195.621384,103.712486 
	C197.258698,99.792023 198.895996,95.871559 200.804581,91.135338 
	C200.792725,89.418854 200.780884,87.702370 200.955032,85.105431 
	C200.893997,82.414856 200.832962,79.724289 200.928909,76.104034 
	C200.827988,67.080360 200.727066,58.056690 200.797516,48.473122 
	C200.580154,47.964443 200.362778,47.455769 200.170792,46.191605 
	C200.021729,45.455036 199.872650,44.718468 199.775314,43.470451 
	C199.554581,43.223434 199.333847,42.976418 199.092178,42.031261 
	C195.216644,32.387451 187.317047,29.579924 177.817047,29.568066 
	C161.988632,29.548306 146.160141,29.560284 130.331757,29.593874 
	C129.053238,29.596586 127.775291,29.868563 126.419426,30.024336 
	C126.419426,85.503639 126.419426,140.689331 126.419426,195.969772 
	C144.987137,195.969772 163.149063,196.346313 181.283035,195.798370 
	C189.389755,195.553421 196.576416,192.243835 199.492981,182.951492 
	C199.716888,182.670227 199.742996,182.371704 199.851685,181.401016 
	C199.889252,180.930862 199.926834,180.460693 200.425293,179.471680 
	C200.516586,178.324173 200.607880,177.176682 200.891190,175.106033 
	C200.870285,154.746994 200.849396,134.387955 200.997803,113.160408 
	C200.997803,111.414764 200.997803,109.669121 200.997803,107.614281 
	C197.586456,107.394379 194.566193,107.199692 192.032623,106.554947 
	C192.691711,105.967094 193.350800,105.379234 194.485519,104.769913 
	C194.794861,104.597137 194.946884,104.333595 194.996506,104.001236 
M105.085503,45.691647 
	C103.793686,39.449829 100.520027,34.647915 94.680595,31.889685 
	C83.698463,26.702322 68.340904,28.911306 59.589138,36.799274 
	C59.420879,36.950924 58.960430,36.778385 58.261433,36.732479 
	C58.080044,34.545727 57.894508,32.309013 57.686745,29.804329 
	C48.855206,29.804329 40.150127,29.804329 31.483906,29.804329 
	C31.483906,85.459839 31.483906,140.668808 31.483906,195.808273 
	C40.502388,195.808273 49.090122,195.808273 58.359207,195.808273 
	C58.359207,149.091187 58.359207,102.730179 58.359207,56.330002 
	C65.331924,56.330002 71.609177,56.330002 78.629936,56.330002 
	C78.629936,102.949600 78.629936,149.312286 78.629936,195.750977 
	C88.092735,195.750977 96.802475,195.750977 105.702011,195.750977 
	C105.788010,194.043320 105.911057,192.736572 105.911346,191.429810 
	C105.921555,145.776810 105.931664,100.123810 105.891106,54.470848 
	C105.888756,51.821907 105.461945,49.173344 105.085503,45.691647 
z"/>
<path fill="#363535" opacity="1.000000" stroke="none" 
	d="
M248.000000,46.000000 
	C248.000000,105.687561 248.000000,165.375122 247.647034,225.528473 
	C243.959244,229.730270 240.704391,233.542053 237.261353,237.175522 
	C234.980469,239.582596 232.429871,241.734100 230.000000,244.000000 
	C168.312439,244.000000 106.624878,244.000000 44.456139,243.654526 
	C41.945427,241.850220 39.915890,240.391403 37.873482,238.543213 
	C36.885593,237.793808 35.910576,237.433807 34.969223,237.039032 
	C35.002884,237.004272 34.941830,237.080856 35.289040,236.742584 
	C34.729832,235.954315 33.823418,235.504318 32.953049,235.039154 
	C32.989101,235.024002 32.969723,235.099777 33.187893,234.681488 
	C32.904068,234.185699 32.402073,234.108170 31.938007,234.027344 
	C31.975937,234.024048 31.969322,234.099915 32.187798,233.681824 
	C31.904343,233.185745 31.402411,233.107742 30.938381,233.026718 
	C30.976282,233.023697 30.970226,233.099503 31.188313,232.681274 
	C30.904430,232.185272 30.402462,232.107529 29.938389,232.026733 
	C29.976288,232.023697 29.970184,232.099487 30.188431,231.681366 
	C29.904766,231.185120 29.402853,231.106995 28.938839,231.026062 
	C28.976738,231.023270 28.971148,231.099075 29.188763,230.680603 
	C28.904356,230.184830 28.402330,230.107544 27.938215,230.027100 
	C27.976126,230.023911 27.969780,230.099731 28.187986,229.681519 
	C27.904221,229.185593 27.402248,229.107910 26.938192,229.027069 
	C26.976109,229.023911 26.969822,229.099747 27.187885,228.681396 
	C26.903936,228.185730 26.401924,228.108398 25.939293,228.015717 
	C25.978678,228.000381 25.932043,228.070892 26.242296,227.842697 
	C26.098064,226.758362 25.643578,225.902237 25.479614,225.071045 
	C26.157473,225.098694 26.544806,225.101395 27.143560,225.341019 
	C28.507509,226.086899 29.660040,226.595840 31.076139,227.360321 
	C34.565178,228.365555 37.790646,229.115250 41.475464,229.959335 
	C94.391556,230.086761 146.848282,230.128647 199.305008,230.108322 
	C200.816467,230.107742 202.327682,229.447571 204.235321,229.044449 
	C217.289597,226.223907 225.746414,218.430756 231.429947,206.842697 
	C232.747925,202.638062 234.509491,198.480225 234.528915,194.314285 
	C234.712326,154.944809 234.599014,115.573952 234.722107,75.742470 
	C234.909286,64.506523 234.983627,53.731434 234.934967,42.956902 
	C234.928711,41.570423 234.284256,40.186829 233.907761,38.416031 
	C233.885696,37.258339 233.891296,36.486511 233.711639,35.600967 
	C233.160049,35.481186 232.970734,35.294773 233.005219,34.952667 
	C233.051971,34.977322 233.019073,35.077797 233.031738,34.720436 
	C232.946136,33.906494 232.847885,33.449917 232.784607,32.655952 
	C231.993744,30.515429 231.167923,28.712288 230.312912,26.613155 
	C229.929840,25.856632 229.575943,25.396101 229.167603,24.550621 
	C229.764801,23.754124 230.416473,23.342571 231.033691,22.964581 
	C230.999268,22.998138 231.061127,22.923992 230.741470,23.203886 
	C231.973221,24.635080 233.524628,25.786379 235.039368,26.966160 
	C235.002701,26.994642 235.056046,26.918594 234.727783,27.262655 
	C235.293518,28.052807 236.187531,28.498898 237.043793,28.970356 
	C237.006042,28.995722 237.059357,28.922035 236.735199,29.224962 
	C237.632858,30.331219 238.854691,31.134546 240.041199,31.959076 
	C240.005859,31.980280 240.033096,31.902502 239.815247,32.319031 
	C240.097427,32.812649 240.597473,32.889732 241.057251,32.984940 
	C241.016998,33.003059 241.072510,32.934395 240.714081,33.167824 
	C242.903763,37.600830 245.451874,41.800415 248.000000,46.000000 
z"/>
<path fill="#000000" opacity="1.000000" stroke="none" 
	d="
M37.886353,238.932587 
	C39.915890,240.391403 41.945427,241.850220 43.987480,243.654526 
	C29.735172,244.000000 15.470343,244.000000 1.000000,244.000000 
	C1.000000,227.979691 1.000000,211.958511 1.348169,195.174896 
	C2.128187,195.398438 2.740150,196.345505 2.962798,197.376633 
	C4.459827,204.309677 7.334511,210.440201 12.925998,215.053757 
	C12.925998,215.053757 12.993711,215.003586 13.048203,215.322342 
	C13.719155,216.119049 14.335618,216.597000 14.952082,217.074951 
	C14.952084,217.074951 14.990350,217.007416 15.019495,217.285110 
	C15.350425,217.734543 15.652210,217.906281 15.953993,218.078033 
	C15.953990,218.078033 15.998938,218.000198 16.071651,218.357590 
	C17.415829,219.403763 18.687290,220.092545 20.253475,220.825806 
	C20.743198,220.908524 20.938198,220.946747 21.145386,221.363846 
	C21.814901,222.970520 22.472229,224.198349 23.122526,225.243027 
	C23.115494,225.059891 23.100857,225.427139 23.281948,225.704346 
	C24.286041,226.677994 25.109041,227.374435 25.932041,228.070892 
	C25.932043,228.070892 25.978678,228.000381 26.011631,228.282364 
	C26.352999,228.742813 26.661411,228.921280 26.969824,229.099747 
	C26.969822,229.099747 26.976109,229.023911 27.010223,229.293900 
	C27.352819,229.742508 27.661301,229.921112 27.969780,230.099731 
	C27.969780,230.099731 27.976126,230.023911 28.010338,230.294098 
	C28.353416,230.742538 28.662281,230.920807 28.971148,231.099075 
	C28.971148,231.099075 28.976738,231.023270 29.010387,231.293304 
	C29.352753,231.742050 29.661467,231.920776 29.970184,232.099487 
	C29.970184,232.099487 29.976288,232.023697 30.010281,232.293747 
	C30.352924,232.742355 30.661575,232.920929 30.970226,233.099503 
	C30.970226,233.099503 30.976282,233.023697 31.010208,233.293610 
	C31.352530,233.742325 31.660925,233.921127 31.969322,234.099915 
	C31.969322,234.099915 31.975937,234.024048 32.010216,234.294067 
	C32.352905,234.742645 32.661312,234.921219 32.969719,235.099777 
	C32.969723,235.099777 32.989101,235.024002 33.039436,235.327118 
	C33.707119,236.113785 34.324474,236.597321 34.941826,237.080856 
	C34.941830,237.080856 35.002884,237.004272 35.069237,237.346390 
	C36.052513,238.103195 36.969429,238.517899 37.886353,238.932587 
z"/>
<path fill="#000000" opacity="1.000000" stroke="none" 
	d="
M224.950821,19.969044 
	C224.836685,19.395897 224.722549,18.822750 224.308899,17.788860 
	C223.699051,16.536253 223.388748,15.744387 223.078461,14.952518 
	C223.078461,14.952518 223.000000,14.999504 222.980072,14.711710 
	C222.655243,14.256459 222.350342,14.089004 222.045425,13.921546 
	C222.045425,13.921545 222.008194,13.991812 221.978958,13.710528 
	C221.646301,13.259286 221.342880,13.089327 221.039459,12.919368 
	C221.039459,12.919367 221.005844,12.991734 220.957413,12.681095 
	C220.292892,11.891338 219.676819,11.412218 219.060745,10.933096 
	C219.060745,10.933093 219.004303,10.997317 218.982788,10.711506 
	C218.657104,10.258061 218.352966,10.090426 218.048813,9.922792 
	C218.048813,9.922791 218.000000,9.999275 217.918777,9.631185 
	C215.072006,7.488098 212.249054,5.794144 209.570038,3.896949 
	C208.544052,3.170367 207.846970,1.979372 207.000000,1.000001 
	C220.591492,1.000000 234.182983,1.000000 248.000000,1.000000 
	C248.000000,13.686671 248.000000,26.374678 247.698914,39.814919 
	C245.289398,38.022900 243.180954,35.478645 241.072510,32.934395 
	C241.072510,32.934395 241.016998,33.003059 240.988770,32.717133 
	C240.651382,32.254971 240.342239,32.078735 240.033096,31.902500 
	C240.033096,31.902502 240.005859,31.980280 239.949463,31.657934 
	C238.948502,30.531073 238.003922,29.726557 237.059357,28.922039 
	C237.059357,28.922035 237.006042,28.995722 236.960831,28.680588 
	C236.295761,27.883165 235.675903,27.400879 235.056046,26.918592 
	C235.056046,26.918594 235.002701,26.994642 234.942352,26.658230 
	C233.608368,25.189207 232.334747,24.056599 231.061127,22.923992 
	C231.061127,22.923992 230.999268,22.998138 230.910568,22.624464 
	C228.864853,21.490208 226.907837,20.729626 224.950821,19.969044 
z"/>
<path fill="#FFF1E2" opacity="1.000000" stroke="none" 
	d="
M2.979593,32.854420 
	C2.990057,82.926544 3.000521,132.998672 2.628242,183.533142 
	C1.830333,183.996994 1.415166,183.998489 1.000000,184.000000 
	C1.000000,133.979111 1.000000,83.958214 1.280673,33.754951 
	C2.034095,33.333195 2.506844,33.093807 2.979593,32.854420 
z"/>
<path fill="#000000" opacity="1.000000" stroke="none" 
	d="
M2.980209,32.450600 
	C2.506844,33.093807 2.034095,33.333195 1.280673,33.286293 
	C1.000000,22.417395 1.000000,11.834788 1.000000,1.000000 
	C8.685706,1.000000 16.374161,1.000000 24.812454,1.310267 
	C24.090317,2.524171 22.614878,3.422222 21.146954,4.332389 
	C13.797391,8.889377 7.260944,14.134152 5.234178,23.184597 
	C4.483060,26.138657 3.731942,29.092716 2.980209,32.450600 
z"/>
<path fill="#000000" opacity="1.000000" stroke="none" 
	d="
M230.469727,244.000000 
	C232.429871,241.734100 234.980469,239.582596 237.261353,237.175522 
	C240.704391,233.542053 243.959244,229.730270 247.647034,225.997131 
	C248.000000,231.925735 248.000000,237.851456 248.000000,244.000000 
	C242.315063,244.000000 236.627243,244.000000 230.469727,244.000000 
z"/>
<path fill="#FF905C" opacity="1.000000" stroke="none" 
	d="
M197.056793,1.917297 
	C146.020737,1.948696 94.984688,1.985018 43.948627,1.996517 
	C41.474571,1.997075 39.000462,1.779524 36.263191,1.331770 
	C89.354225,1.000000 142.708450,1.000000 196.533234,1.230086 
	C197.003784,1.460172 197.056793,1.917297 197.056793,1.917297 
z"/>
<path fill="#FEE8D9" opacity="1.000000" stroke="none" 
	d="
M5.557053,23.081451 
	C7.260944,14.134152 13.797391,8.889377 21.146954,4.332389 
	C22.614878,3.422222 24.090317,2.524171 25.281145,1.310267 
	C27.370558,1.000000 29.741114,1.000000 32.555836,1.000000 
	C32.712963,1.376114 32.487717,2.004092 32.129940,2.091867 
	C20.165157,5.027248 11.880180,12.561454 5.557053,23.081451 
z"/>
<path fill="#FFEFE3" opacity="1.000000" stroke="none" 
	d="
M1.000000,184.458069 
	C1.415166,183.998489 1.830333,183.996994 2.556861,183.996887 
	C2.369159,195.604111 6.564501,205.564819 13.248681,214.797012 
	C7.334511,210.440201 4.459827,204.309677 2.962798,197.376633 
	C2.740150,196.345505 2.128187,195.398438 1.348169,194.706238 
	C1.000000,191.638718 1.000000,188.277420 1.000000,184.458069 
z"/>
<path fill="#FFEFE3" opacity="1.000000" stroke="none" 
	d="
M197.449142,1.938519 
	C197.056793,1.917297 197.003784,1.460172 197.001892,1.230086 
	C200.030594,1.000000 203.061188,1.000000 206.545898,1.000001 
	C207.846970,1.979372 208.544052,3.170367 209.570038,3.896949 
	C212.249054,5.794144 215.072006,7.488098 217.942886,9.592093 
	C216.722794,9.481206 215.369507,9.110462 214.076797,8.589397 
	C208.655151,6.404018 203.251648,4.173638 197.449142,1.938519 
z"/>
<path fill="#F3F3F3" opacity="1.000000" stroke="none" 
	d="
M240.714081,33.167824 
	C243.180954,35.478645 245.289398,38.022900 247.698914,40.283577 
	C248.000000,41.714359 248.000000,43.428715 248.000000,45.571537 
	C245.451874,41.800415 242.903763,37.600830 240.714081,33.167824 
z"/>
<path fill="#FFFDFB" opacity="1.000000" stroke="none" 
	d="
M105.159088,46.108124 
	C105.461945,49.173344 105.888756,51.821907 105.891106,54.470848 
	C105.931664,100.123810 105.921555,145.776810 105.911346,191.429810 
	C105.911057,192.736572 105.788010,194.043320 105.702011,195.750977 
	C96.802475,195.750977 88.092735,195.750977 78.629936,195.750977 
	C78.629936,149.312286 78.629936,102.949600 78.629936,56.330002 
	C71.609177,56.330002 65.331924,56.330002 58.359207,56.330002 
	C58.359207,102.730179 58.359207,149.091187 58.359207,195.808273 
	C49.090122,195.808273 40.502388,195.808273 31.483906,195.808273 
	C31.483906,140.668808 31.483906,85.459839 31.483906,29.804329 
	C40.150127,29.804329 48.855206,29.804329 57.686745,29.804329 
	C57.894508,32.309013 58.080044,34.545727 58.261433,36.732479 
	C58.960430,36.778385 59.420879,36.950924 59.589138,36.799274 
	C68.340904,28.911306 83.698463,26.702322 94.680595,31.889685 
	C100.520027,34.647915 103.793686,39.449829 105.159088,46.108124 
z"/>
<path fill="#FEFEFC" opacity="1.000000" stroke="none" 
	d="
M199.723572,43.981903 
	C199.872650,44.718468 200.021729,45.455036 199.914764,46.702221 
	C199.981216,47.819565 200.303680,48.426292 200.626144,49.033020 
	C200.727066,58.056690 200.827988,67.080360 200.613434,76.828522 
	C199.660721,80.408340 197.314148,83.359154 200.769043,85.985886 
	C200.780884,87.702370 200.792725,89.418854 200.328827,91.538109 
	C199.366562,91.853348 198.709335,91.939201 198.418488,91.652893 
	C191.246506,84.592979 183.544830,85.025131 175.491653,89.940552 
	C175.363510,90.018776 175.165955,89.983276 174.913177,89.538818 
	C174.810684,79.078606 174.682175,69.078514 174.850235,59.083397 
	C174.900558,56.091103 173.969925,54.731922 170.905365,54.704506 
	C170.543579,54.651714 170.273697,54.748463 169.671768,54.912193 
	C168.892426,54.934258 168.445129,54.889343 167.903564,54.696655 
	C167.539871,54.650513 167.270477,54.752148 166.627823,54.924515 
	C165.499115,54.949570 164.743668,54.903893 163.793884,54.635544 
	C162.736328,54.566765 161.873108,54.720650 160.563141,54.943008 
	C157.688675,55.011478 155.260910,55.011478 152.270035,55.011478 
	C152.270035,69.517746 152.210373,83.378059 152.413437,97.234520 
	C152.426056,98.095726 154.455399,99.573944 155.626282,99.658386 
	C160.400391,100.002693 165.205551,99.916168 170.016556,100.288094 
	C170.356293,101.058228 170.678757,101.528656 171.001907,102.391968 
	C172.533249,113.194511 180.366241,120.104263 190.252304,118.801453 
	C193.923599,118.317642 197.311401,115.682816 200.828491,114.028915 
	C200.849396,134.387955 200.870285,154.746994 200.536194,175.738327 
	C200.108948,177.577255 200.036667,178.783905 199.964417,179.990540 
	C199.926834,180.460693 199.889252,180.930862 199.551392,181.883438 
	C199.084167,182.634354 199.036789,182.922546 199.108932,183.230423 
	C196.576416,192.243835 189.389755,195.553421 181.283035,195.798370 
	C163.149063,196.346313 144.987137,195.969772 126.419426,195.969772 
	C126.419426,140.689331 126.419426,85.503639 126.419426,30.024336 
	C127.775291,29.868563 129.053238,29.596586 130.331757,29.593874 
	C146.160141,29.560284 161.988632,29.548306 177.817047,29.568066 
	C187.317047,29.579924 195.216644,32.387451 199.108521,42.628323 
	C199.213837,43.565117 199.413406,43.817287 199.723572,43.981903 
M175.692505,129.933640 
	C177.128677,128.682587 178.564850,127.431534 180.191925,126.014198 
	C173.804886,126.014198 168.303467,126.172836 162.822098,125.911270 
	C161.305099,125.838882 159.411530,124.876137 158.444656,123.701385 
	C155.521927,120.150276 153.133163,116.154434 150.148300,112.663666 
	C149.469849,111.870209 147.226364,112.414963 145.703232,112.343765 
	C146.025284,113.618301 146.319199,114.900742 146.674545,116.165932 
	C147.897476,120.520294 154.335281,122.542839 152.258987,129.302063 
	C152.263458,139.738495 152.208618,150.175491 152.307434,160.611023 
	C152.338318,163.871582 152.783844,167.128204 153.480087,170.965485 
	C159.916824,171.162735 166.353058,171.419144 172.790985,171.471924 
	C173.486847,171.477631 174.192368,170.303223 174.779572,168.785172 
	C174.851913,155.856766 174.924271,142.928375 175.692505,129.933640 
z"/>
<path fill="#000000" opacity="1.000000" stroke="none" 
	d="
M231.065292,206.885727 
	C225.746414,218.430756 217.289597,226.223907 203.777588,229.018280 
	C169.106415,229.028198 135.289276,228.991837 101.472183,229.007721 
	C81.319275,229.017197 61.166409,229.108734 40.664593,228.994324 
	C37.932800,228.200409 35.549938,227.575592 33.043491,226.667236 
	C32.302818,225.972519 31.685726,225.561340 31.477196,225.096603 
	C32.436417,225.016785 32.987076,224.990540 33.537739,224.964294 
	C33.537739,224.964294 33.519169,224.938293 33.815071,225.280411 
	C44.736866,225.691849 55.362766,225.761169 66.383766,225.906555 
	C67.848541,225.945114 68.918213,225.907593 70.420471,225.956955 
	C72.905998,225.985931 74.958931,225.927994 77.476593,225.927979 
	C116.170937,225.990280 154.400558,226.006042 192.630096,225.955582 
	C194.095596,225.953644 195.560242,225.313568 197.025284,224.970856 
	C203.288040,224.946976 208.464920,222.002563 214.086182,218.432053 
	C215.853592,217.427414 217.281326,217.038086 218.294144,216.166580 
	C223.628464,211.576584 226.897217,205.670517 228.911377,198.543167 
	C229.336472,196.561264 229.969833,195.003677 229.969620,193.446198 
	C229.965179,159.633224 229.890167,125.820251 229.906769,91.543823 
	C229.925522,78.025734 229.866226,64.971092 229.806915,51.916458 
	C229.857788,46.620056 229.908646,41.323658 229.981567,35.169502 
	C230.054092,33.228416 230.104584,32.145081 230.443878,31.149010 
	C231.133987,31.832481 231.535294,32.428692 232.009140,33.316578 
	C232.394135,34.098106 232.706604,34.587952 233.019073,35.077797 
	C233.019073,35.077797 233.051971,34.977322 233.142487,35.125832 
	C233.312347,35.635086 233.533646,35.781872 233.896896,35.714687 
	C233.891296,36.486511 233.885696,37.258339 233.597107,38.722771 
	C233.261703,51.633739 233.209290,63.852093 233.081909,76.529312 
	C233.003128,108.704094 233.167389,140.421387 232.907181,172.135223 
	C232.812103,183.722977 231.708694,195.302460 231.065292,206.885727 
z"/>
<path fill="#FEFEFD" opacity="1.000000" stroke="none" 
	d="
M194.009888,104.791382 
	C193.350800,105.379234 192.691711,105.967094 191.536865,106.824379 
	C190.924194,107.210403 190.742889,107.311172 190.709229,107.448212 
	C190.678040,107.575211 190.768997,107.839470 190.867081,107.874969 
	C192.490250,108.462509 194.123032,109.023445 195.853043,109.624893 
	C191.647552,115.948120 185.953537,116.974358 181.481262,111.724930 
	C178.497818,108.223083 176.871872,103.564713 174.651962,99.287003 
	C174.665527,99.150063 174.885208,98.981522 175.238098,98.946510 
	C176.138748,98.163246 176.739029,97.447556 177.225967,96.661629 
	C181.374985,89.965034 187.576416,89.287445 193.339920,94.734673 
	C194.643951,95.967155 196.507294,96.607849 198.113174,97.520958 
	C197.595383,97.979538 197.077576,98.438118 196.559784,98.896698 
	C196.030792,100.580147 195.501816,102.263588 194.972839,103.947037 
	C194.972839,103.947037 194.996506,104.001236 194.767181,104.065430 
	C194.279724,104.284668 194.103729,104.505257 194.009888,104.791382 
z"/>
<path fill="#F4EEE9" opacity="1.000000" stroke="none" 
	d="
M174.638397,99.423935 
	C176.871872,103.564713 178.497818,108.223083 181.481262,111.724930 
	C185.953537,116.974358 191.647552,115.948120 195.853043,109.624893 
	C194.123032,109.023445 192.490250,108.462509 190.867081,107.874969 
	C190.768997,107.839470 190.678040,107.575211 190.709229,107.448212 
	C190.742889,107.311172 190.924194,107.210403 191.293518,107.049408 
	C194.566193,107.199692 197.586456,107.394379 200.997803,107.614281 
	C200.997803,109.669121 200.997803,111.414764 200.913147,113.594666 
	C197.311401,115.682816 193.923599,118.317642 190.252304,118.801453 
	C180.366241,120.104263 172.533249,113.194511 171.326096,102.348892 
	C172.099106,101.260201 172.548615,100.607460 173.256653,99.823502 
	C173.889603,99.602821 174.263992,99.513374 174.638397,99.423935 
z"/>
<path fill="#F9F0E8" opacity="1.000000" stroke="none" 
	d="
M195.297104,103.829758 
	C195.501816,102.263588 196.030792,100.580147 196.559784,98.896698 
	C197.077576,98.438118 197.595383,97.979538 198.113174,97.520958 
	C196.507294,96.607849 194.643951,95.967155 193.339920,94.734673 
	C187.576416,89.287445 181.374985,89.965034 177.225967,96.661629 
	C176.739029,97.447556 176.138748,98.163246 175.192505,98.499580 
	C174.862930,95.392059 174.931870,92.696457 175.000793,90.000854 
	C175.165955,89.983276 175.363510,90.018776 175.491653,89.940552 
	C183.544830,85.025131 191.246506,84.592979 198.418488,91.652893 
	C198.709335,91.939201 199.366562,91.853348 200.193192,91.945984 
	C198.895996,95.871559 197.258698,99.792023 195.297104,103.829758 
z"/>
<path fill="#FFFFE6" opacity="1.000000" stroke="none" 
	d="
M196.555267,224.948853 
	C195.560242,225.313568 194.095596,225.953644 192.630096,225.955582 
	C154.400558,226.006042 116.170937,225.990280 77.475922,225.688324 
	C77.010529,225.390732 77.042892,224.912506 77.042892,224.912506 
	C116.723671,224.917282 156.404449,224.922058 196.555267,224.948853 
z"/>
<path fill="#FEF5E5" opacity="1.000000" stroke="none" 
	d="
M229.828720,92.007278 
	C229.890167,125.820251 229.965179,159.633224 229.969620,193.446198 
	C229.969833,195.003677 229.336472,196.561264 228.704926,198.368744 
	C228.275238,198.104462 228.138809,197.590225 228.002380,197.076004 
	C228.316513,191.953262 228.885132,186.831421 228.902863,181.707642 
	C229.005203,152.116592 228.977432,122.525101 229.240341,92.471062 
	C229.486938,92.008369 229.828720,92.007278 229.828720,92.007278 
z"/>
<path fill="#FBEAE1" opacity="1.000000" stroke="none" 
	d="
M227.809448,197.360275 
	C228.138809,197.590225 228.275238,198.104462 228.618118,198.793106 
	C226.897217,205.670517 223.628464,211.576584 218.294144,216.166580 
	C217.281326,217.038086 215.853592,217.427414 214.238342,218.134460 
	C219.774765,212.256622 225.464615,206.132797 227.809448,197.360275 
z"/>
<path fill="#FFEADD" opacity="1.000000" stroke="none" 
	d="
M229.906769,91.543823 
	C229.828720,92.007278 229.486938,92.008369 229.316071,92.008316 
	C229.145447,78.829643 229.145706,65.651024 229.476440,52.194435 
	C229.866226,64.971092 229.925522,78.025734 229.906769,91.543823 
z"/>
<path fill="#FFFFFF" opacity="1.000000" stroke="none" 
	d="
M65.988663,225.830490 
	C55.362766,225.761169 44.736866,225.691849 33.806614,225.266876 
	C44.029751,224.881439 54.557247,224.851669 65.537582,225.121445 
	C65.990433,225.420990 65.988663,225.830490 65.988663,225.830490 
z"/>
<path fill="#F3F3F3" opacity="1.000000" stroke="none" 
	d="
M225.036209,20.316357 
	C226.907837,20.729626 228.864853,21.490208 230.945007,22.590904 
	C230.416473,23.342571 229.764801,23.754124 228.752472,24.578535 
	C227.838669,25.033070 227.285522,25.074741 226.732376,25.116413 
	C226.195450,23.632166 225.658524,22.147919 225.036209,20.316357 
z"/>
<path fill="#EBDED9" opacity="1.000000" stroke="none" 
	d="
M23.100857,225.427139 
	C23.100857,225.427139 23.115494,225.059891 23.092985,224.787827 
	C23.051100,223.317932 23.031725,222.120117 23.012348,220.922287 
	C24.793324,221.567657 26.574297,222.213028 28.478251,223.245209 
	C28.044865,224.122711 27.488499,224.613403 26.932137,225.104095 
	C26.544806,225.101395 26.157473,225.098694 24.950317,225.126801 
	C23.787285,225.247437 23.444071,225.337296 23.100857,225.427139 
z"/>
<path fill="#F3F3F3" opacity="1.000000" stroke="none" 
	d="
M231.936600,33.024899 
	C231.535294,32.428692 231.133987,31.832481 230.098694,31.134960 
	C229.004333,31.020416 228.543930,31.007185 228.083557,30.993952 
	C228.009201,30.248358 227.934845,29.502764 228.205292,28.255728 
	C229.147415,27.472570 229.744751,27.190857 230.342087,26.909145 
	C231.167923,28.712288 231.993744,30.515429 232.581116,32.656883 
	C232.342651,32.995193 231.936600,33.024899 231.936600,33.024899 
z"/>
<path fill="#F9F0E8" opacity="1.000000" stroke="none" 
	d="
M200.862030,85.545654 
	C197.314148,83.359154 199.660721,80.408340 200.534943,77.293365 
	C200.832962,79.724289 200.893997,82.414856 200.862030,85.545654 
z"/>
<path fill="#EBDED9" opacity="1.000000" stroke="none" 
	d="
M76.716949,224.756439 
	C77.042892,224.912506 77.010529,225.390732 77.011200,225.630402 
	C74.958931,225.927994 72.905998,225.985931 70.421265,225.717316 
	C69.989471,225.390793 69.955170,224.912750 69.955170,224.912750 
	C72.100449,224.808640 74.245720,224.704514 76.716949,224.756439 
z"/>
<path fill="#F8F7F7" opacity="1.000000" stroke="none" 
	d="
M27.143557,225.341019 
	C27.488499,224.613403 28.044865,224.122711 28.792850,223.420044 
	C29.424314,223.298264 29.864159,223.388458 30.623657,223.880219 
	C30.974543,224.572769 31.016315,224.862228 31.068630,225.150177 
	C31.685726,225.561340 32.302818,225.972519 32.649773,226.682266 
	C31.857281,227.022156 31.334925,227.063461 30.812569,227.104782 
	C29.660040,226.595840 28.507509,226.086899 27.143557,225.341019 
z"/>
<path fill="#F4EEE9" opacity="1.000000" stroke="none" 
	d="
M200.194855,179.731110 
	C200.036667,178.783905 200.108948,177.577255 200.440186,176.199890 
	C200.607880,177.176682 200.516586,178.324173 200.194855,179.731110 
z"/>
<path fill="#F8F7F7" opacity="1.000000" stroke="none" 
	d="
M22.897152,220.820953 
	C23.031725,222.120117 23.051100,223.317932 23.100018,224.970963 
	C22.472229,224.198349 21.814901,222.970520 21.490540,221.343170 
	C22.040735,220.866287 22.257969,220.788925 22.475204,220.711563 
	C22.475204,220.711563 22.781954,220.719604 22.897152,220.820953 
z"/>
<path fill="#FFEFE3" opacity="1.000000" stroke="none" 
	d="
M19.958752,220.781311 
	C18.687290,220.092545 17.415829,219.403763 16.044598,218.393555 
	C16.394852,217.967926 16.844875,217.863708 17.747009,218.198822 
	C18.390528,218.851364 18.628815,218.972061 18.913979,219.000229 
	C18.913979,219.000229 18.996244,218.991119 19.076267,219.266312 
	C19.423775,219.954773 19.691263,220.368042 19.958752,220.781311 
z"/>
<path fill="#F1EDEB" opacity="1.000000" stroke="none" 
	d="
M230.312912,26.613153 
	C229.744751,27.190857 229.147415,27.472570 228.244659,27.882046 
	C227.592789,27.247679 227.246368,26.485552 226.816162,25.419918 
	C227.285522,25.074741 227.838669,25.033070 228.806931,24.963482 
	C229.575943,25.396101 229.929840,25.856632 230.312912,26.613153 
z"/>
<path fill="#F1EDEB" opacity="1.000000" stroke="none" 
	d="
M228.068298,31.330256 
	C228.543930,31.007185 229.004333,31.020416 229.809891,31.047699 
	C230.104584,32.145081 230.054092,33.228416 229.915527,34.713615 
	C229.235977,33.965843 228.644516,32.816200 228.068298,31.330256 
z"/>
<path fill="#EBDED9" opacity="1.000000" stroke="none" 
	d="
M20.253475,220.825806 
	C19.691263,220.368042 19.423775,219.954773 19.081560,219.307358 
	C20.036285,219.432632 21.065741,219.792053 22.285200,220.431519 
	C22.257969,220.788925 22.040735,220.866287 21.478350,220.964325 
	C20.938198,220.946747 20.743198,220.908524 20.253475,220.825806 
z"/>
<path fill="#FFFFE6" opacity="1.000000" stroke="none" 
	d="
M69.561249,224.863190 
	C69.955170,224.912750 69.989471,225.390793 69.988678,225.630432 
	C68.918213,225.907593 67.848541,225.945114 66.383766,225.906555 
	C65.988663,225.830490 65.990433,225.420990 65.998642,225.216400 
	C67.060341,224.945755 68.113838,224.879700 69.561249,224.863190 
z"/>
<path fill="#F9F0E8" opacity="1.000000" stroke="none" 
	d="
M200.711823,48.753071 
	C200.303680,48.426292 199.981216,47.819565 199.902069,47.079964 
	C200.362778,47.455769 200.580154,47.964443 200.711823,48.753071 
z"/>
<path fill="#EBDED9" opacity="1.000000" stroke="none" 
	d="
M31.477192,225.096619 
	C31.016315,224.862228 30.974543,224.572769 30.908150,224.065598 
	C31.695248,224.005615 32.517509,224.161804 33.438755,224.641144 
	C32.987076,224.990540 32.436417,225.016785 31.477192,225.096619 
z"/>
<path fill="#FFEFE3" opacity="1.000000" stroke="none" 
	d="
M218.778473,11.274097 
	C219.676819,11.412218 220.292892,11.891338 220.990784,12.659225 
	C220.213791,12.503695 219.354996,12.059396 218.778473,11.274097 
z"/>
<path fill="#FFEFE3" opacity="1.000000" stroke="none" 
	d="
M15.173405,216.694702 
	C14.335618,216.597000 13.719155,216.119049 13.020315,215.353836 
	C13.756867,215.482544 14.575799,215.898499 15.173405,216.694702 
z"/>
<path fill="#FFEFE3" opacity="1.000000" stroke="none" 
	d="
M222.719360,15.189496 
	C223.388748,15.744387 223.699051,16.536253 224.026978,17.691029 
	C223.483154,17.178116 222.921707,16.302294 222.719360,15.189496 
z"/>
<path fill="#F9F0E8" opacity="1.000000" stroke="none" 
	d="
M199.749451,43.726173 
	C199.413406,43.817287 199.213837,43.565117 199.118988,42.977394 
	C199.333847,42.976418 199.554581,43.223434 199.749451,43.726173 
z"/>
<path fill="#FFEFE3" opacity="1.000000" stroke="none" 
	d="
M16.152010,217.692566 
	C15.652210,217.906281 15.350425,217.734543 14.983769,217.300262 
	C15.395941,217.127533 15.872982,217.217331 16.152010,217.692566 
z"/>
<path fill="#FFEFE3" opacity="1.000000" stroke="none" 
	d="
M217.839523,10.319710 
	C218.352966,10.090426 218.657104,10.258061 219.020050,10.690561 
	C218.595978,10.875827 218.113113,10.796227 217.839523,10.319710 
z"/>
<path fill="#F9F0E8" opacity="1.000000" stroke="none" 
	d="
M194.247711,104.780647 
	C194.103729,104.505257 194.279724,104.284668 194.739716,104.054443 
	C194.946884,104.333595 194.794861,104.597137 194.247711,104.780647 
z"/>
<path fill="#FFEFE3" opacity="1.000000" stroke="none" 
	d="
M221.846985,14.319785 
	C222.350342,14.089004 222.655243,14.256459 223.019272,14.688990 
	C222.601761,14.875384 222.125153,14.796703 221.846985,14.319785 
z"/>
<path fill="#FFEFE3" opacity="1.000000" stroke="none" 
	d="
M220.871887,13.316416 
	C221.342880,13.089327 221.646301,13.259286 222.014160,13.692038 
	C221.620499,13.874374 221.162399,13.793919 220.871887,13.316416 
z"/>
<path fill="#F4EEE9" opacity="1.000000" stroke="none" 
	d="
M199.300964,183.090958 
	C199.036789,182.922546 199.084167,182.634354 199.411224,182.210876 
	C199.742996,182.371704 199.716888,182.670227 199.300964,183.090958 
z"/>
<path fill="#EBDED9" opacity="1.000000" stroke="none" 
	d="
M18.828499,218.806091 
	C18.628815,218.972061 18.390528,218.851364 18.090202,218.465576 
	C18.286194,218.277634 18.540104,218.383957 18.828499,218.806091 
z"/>
<path fill="#FDFDFD" opacity="1.000000" stroke="none" 
	d="
M231.429947,206.842697 
	C231.708694,195.302460 232.812103,183.722977 232.907181,172.135223 
	C233.167389,140.421387 233.003128,108.704094 233.319565,76.552460 
	C233.632187,76.116745 234.094238,76.241005 234.094238,76.241005 
	C234.094238,76.241005 234.571243,76.203499 234.571228,76.203499 
	C234.599014,115.573952 234.712326,154.944809 234.528915,194.314285 
	C234.509491,198.480225 232.747925,202.638062 231.429947,206.842697 
z"/>
<path fill="#FFFFFF" opacity="1.000000" stroke="none" 
	d="
M41.013523,229.163391 
	C61.166409,229.108734 81.319275,229.017197 101.472183,229.007721 
	C135.289276,228.991837 169.106415,229.028198 203.381271,229.068756 
	C202.327682,229.447571 200.816467,230.107742 199.305008,230.108322 
	C146.848282,230.128647 94.391556,230.086761 41.475243,229.783966 
	C41.015663,229.514191 41.013523,229.163391 41.013523,229.163391 
z"/>
<path fill="#ADADAF" opacity="1.000000" stroke="none" 
	d="
M234.722107,75.742470 
	C234.571243,76.203499 234.094238,76.241005 234.094238,76.241005 
	C234.094238,76.241005 233.632187,76.116745 233.394531,76.093597 
	C233.209290,63.852093 233.261703,51.633739 233.624771,39.108643 
	C234.284256,40.186829 234.928711,41.570423 234.934967,42.956902 
	C234.983627,53.731434 234.909286,64.506523 234.722107,75.742470 
z"/>
<path fill="#EBDED9" opacity="1.000000" stroke="none" 
	d="
M40.664593,228.994324 
	C41.013523,229.163391 41.015663,229.514191 41.015888,229.689575 
	C37.790646,229.115250 34.565178,228.365555 31.076141,227.360321 
	C31.334925,227.063461 31.857281,227.022156 32.773354,226.965790 
	C35.549938,227.575592 37.932800,228.200409 40.664593,228.994324 
z"/>
<path fill="#F3F3F3" opacity="1.000000" stroke="none" 
	d="
M230.741470,23.203884 
	C232.334747,24.056599 233.608368,25.189207 234.979004,26.629747 
	C233.524628,25.786379 231.973221,24.635080 230.741470,23.203884 
z"/>
<path fill="#F3F3F3" opacity="1.000000" stroke="none" 
	d="
M236.735199,29.224964 
	C238.003922,29.726557 238.948502,30.531073 239.984802,31.636730 
	C238.854691,31.134546 237.632858,30.331219 236.735199,29.224964 
z"/>
<path fill="#F8F7F7" opacity="1.000000" stroke="none" 
	d="
M37.873478,238.543213 
	C36.969429,238.517899 36.052513,238.103195 35.035576,237.381165 
	C35.910576,237.433807 36.885593,237.793808 37.873478,238.543213 
z"/>
<path fill="#F8F7F7" opacity="1.000000" stroke="none" 
	d="
M23.281948,225.704346 
	C23.444071,225.337296 23.787285,225.247437 24.659796,225.101837 
	C25.643578,225.902237 26.098064,226.758362 26.242294,227.842697 
	C25.109041,227.374435 24.286041,226.677994 23.281948,225.704346 
z"/>
<path fill="#F8F7F7" opacity="1.000000" stroke="none" 
	d="
M35.289036,236.742584 
	C34.324474,236.597321 33.707119,236.113785 33.003384,235.342285 
	C33.823418,235.504318 34.729832,235.954315 35.289036,236.742584 
z"/>
<path fill="#F3F3F3" opacity="1.000000" stroke="none" 
	d="
M234.727783,27.262653 
	C235.675903,27.400879 236.295761,27.883165 236.998581,28.655220 
	C236.187531,28.498898 235.293518,28.052807 234.727783,27.262653 
z"/>
<path fill="#F1EDEB" opacity="1.000000" stroke="none" 
	d="
M232.009140,33.316578 
	C231.936600,33.024899 232.342651,32.995193 232.546143,32.994267 
	C232.847885,33.449917 232.946136,33.906494 233.031738,34.720436 
	C232.706604,34.587952 232.394135,34.098106 232.009140,33.316578 
z"/>
<path fill="#F1EDEB" opacity="1.000000" stroke="none" 
	d="
M233.711639,35.600967 
	C233.533646,35.781872 233.312347,35.635086 233.095734,35.101173 
	C232.970734,35.294773 233.160049,35.481186 233.711639,35.600967 
z"/>
<path fill="#F8F7F7" opacity="1.000000" stroke="none" 
	d="
M33.187889,234.681488 
	C32.661312,234.921219 32.352905,234.742645 31.972286,234.297363 
	C32.402073,234.108170 32.904068,234.185699 33.187889,234.681488 
z"/>
<path fill="#F8F7F7" opacity="1.000000" stroke="none" 
	d="
M32.187798,233.681824 
	C31.660925,233.921127 31.352530,233.742325 30.972305,233.296631 
	C31.402411,233.107742 31.904343,233.185745 32.187798,233.681824 
z"/>
<path fill="#F8F7F7" opacity="1.000000" stroke="none" 
	d="
M31.188313,232.681274 
	C30.661575,232.920929 30.352924,232.742355 29.972382,232.296783 
	C30.402462,232.107529 30.904430,232.185272 31.188313,232.681274 
z"/>
<path fill="#F8F7F7" opacity="1.000000" stroke="none" 
	d="
M30.188431,231.681366 
	C29.661467,231.920776 29.352753,231.742050 28.972488,231.296097 
	C29.402853,231.106995 29.904766,231.185120 30.188431,231.681366 
z"/>
<path fill="#F8F7F7" opacity="1.000000" stroke="none" 
	d="
M29.188763,230.680603 
	C28.662281,230.920807 28.353416,230.742538 27.972427,230.297272 
	C28.402330,230.107544 28.904356,230.184830 29.188763,230.680603 
z"/>
<path fill="#F8F7F7" opacity="1.000000" stroke="none" 
	d="
M28.187986,229.681519 
	C27.661301,229.921112 27.352819,229.742508 26.972307,229.297058 
	C27.402248,229.107910 27.904221,229.185593 28.187986,229.681519 
z"/>
<path fill="#F8F7F7" opacity="1.000000" stroke="none" 
	d="
M27.187887,228.681396 
	C26.661411,228.921280 26.352999,228.742813 25.972248,228.297699 
	C26.401924,228.108398 26.903936,228.185730 27.187887,228.681396 
z"/>
<path fill="#F3F3F3" opacity="1.000000" stroke="none" 
	d="
M239.815247,32.319031 
	C240.342239,32.078735 240.651382,32.254971 241.029022,32.699013 
	C240.597473,32.889732 240.097427,32.812649 239.815247,32.319031 
z"/>
<path fill="#EB6331" opacity="1.000000" stroke="none" 
	d="
M174.913177,89.538826 
	C174.931870,92.696457 174.862930,95.392059 174.839600,98.534592 
	C174.885208,98.981522 174.665527,99.150063 174.651962,99.286995 
	C174.263992,99.513374 173.889603,99.602821 172.884705,99.746674 
	C171.502548,99.863510 170.750916,99.925949 169.999283,99.988388 
	C165.205551,99.916168 160.400391,100.002693 155.626282,99.658386 
	C154.455399,99.573944 152.426056,98.095726 152.413437,97.234520 
	C152.210373,83.378059 152.270035,69.517746 152.270035,55.011478 
	C155.260910,55.011478 157.688675,55.011478 160.931030,55.027916 
	C162.493164,54.982307 163.240677,54.920261 163.988205,54.858215 
	C164.743668,54.903893 165.499115,54.949570 166.877670,54.991245 
	C167.666458,54.939640 167.832138,54.892033 167.997833,54.844429 
	C168.445129,54.889343 168.892426,54.934258 169.919510,54.983849 
	C170.665283,54.943699 170.831268,54.898876 170.997253,54.854050 
	C173.969925,54.731922 174.900558,56.091103 174.850235,59.083397 
	C174.682175,69.078514 174.810684,79.078606 174.913177,89.538826 
z"/>
<path fill="#EB622F" opacity="1.000000" stroke="none" 
	d="
M153.039566,170.386627 
	C152.783844,167.128204 152.338318,163.871582 152.307434,160.611023 
	C152.208618,150.175491 152.263458,139.738495 152.653503,128.737823 
	C159.266861,128.078598 165.487503,127.878792 171.702881,127.985947 
	C172.812042,128.005066 173.899261,129.296188 174.996613,129.999969 
	C174.924271,142.928375 174.851913,155.856766 174.390091,169.365875 
	C167.013596,170.093262 160.026581,170.239944 153.039566,170.386627 
z"/>
<path fill="#FAEBE2" opacity="1.000000" stroke="none" 
	d="
M175.344559,129.966797 
	C173.899261,129.296188 172.812042,128.005066 171.702881,127.985947 
	C165.487503,127.878792 159.266861,128.078598 152.602814,128.297943 
	C154.335281,122.542839 147.897476,120.520294 146.674545,116.165932 
	C146.319199,114.900742 146.025284,113.618301 145.703232,112.343765 
	C147.226364,112.414963 149.469849,111.870209 150.148300,112.663666 
	C153.133163,116.154434 155.521927,120.150276 158.444656,123.701385 
	C159.411530,124.876137 161.305099,125.838882 162.822098,125.911270 
	C168.303467,126.172836 173.804886,126.014198 180.191925,126.014198 
	C178.564850,127.431534 177.128677,128.682587 175.344559,129.966797 
z"/>
<path fill="#FAEBE2" opacity="1.000000" stroke="none" 
	d="
M153.259827,170.676056 
	C160.026581,170.239944 167.013596,170.093262 174.447006,169.811401 
	C174.192368,170.303223 173.486847,171.477631 172.790985,171.471924 
	C166.353058,171.419144 159.916824,171.162735 153.259827,170.676056 
z"/>
<path fill="#F9F0E8" opacity="1.000000" stroke="none" 
	d="
M170.016556,100.288094 
	C170.750916,99.925949 171.502548,99.863510 172.626144,99.877899 
	C172.548615,100.607460 172.099106,101.260201 171.325409,101.956009 
	C170.678757,101.528656 170.356293,101.058228 170.016556,100.288094 
z"/>
<path fill="#F9F0E8" opacity="1.000000" stroke="none" 
	d="
M163.793884,54.635544 
	C163.240677,54.920261 162.493164,54.982307 161.377747,54.959446 
	C161.873108,54.720650 162.736328,54.566765 163.793884,54.635544 
z"/>
<path fill="#F9F0E8" opacity="1.000000" stroke="none" 
	d="
M167.903564,54.696655 
	C167.832138,54.892033 167.666458,54.939640 167.250916,54.920513 
	C167.270477,54.752148 167.539871,54.650513 167.903564,54.696655 
z"/>
<path fill="#F9F0E8" opacity="1.000000" stroke="none" 
	d="
M170.905365,54.704506 
	C170.831268,54.898876 170.665283,54.943699 170.251556,54.916866 
	C170.273697,54.748463 170.543579,54.651714 170.905365,54.704506 
z"/>
</svg>